<?xml version="1.0" encoding="UTF-8"?>
<svg width="567px" height="189px" viewBox="0 0 567 189" version="1.1" xmlns="http://www.w3.org/2000/svg" xmlns:xlink="http://www.w3.org/1999/xlink">
    <title>Store Badge/App Store (width-matched)</title>
    <g id="Store-Badge/App-Store-(width-matched)" stroke="none" stroke-width="1" fill="none" fill-rule="evenodd">
        <g id="EN" transform="translate(1.000000, 0.000000)" fill-rule="nonzero">
            <g id="Group">
                <g id="Path">
                    <path d="M520.567242,-0.00061425 L45.0669854,-0.00061425 C43.333727,-0.00061425 41.6212659,-0.00061425 39.8925924,0.00945 C38.4455321,0.0189 37.0100047,0.04635225 35.549048,0.0694575 C32.3751749,0.106793522 29.2087657,0.385920328 26.0773371,0.90441225 C22.950307,1.43419167 19.9212333,2.43297687 17.0925646,3.86698725 C14.2673555,5.31312884 11.6858811,7.19224158 9.44179122,9.43615575 C7.18592028,11.6737598 5.30547766,14.2601274 3.87277124,17.095806 C2.43611061,19.9258406 1.4399255,22.9584834 0.918622188,26.088993 C0.392362709,29.2155487 0.109177695,32.3781596 0.0716085729,35.548443 C0.0277453679,36.997128 0.0231132622,38.4506325 0,39.8995065 L0,149.114385 C0.0231132622,150.581498 0.0277453679,152.002778 0.0716085729,153.470363 C0.109189215,156.640489 0.392374234,159.802942 0.918622188,162.92934 C1.43848603,166.06168 2.43473004,169.096063 3.87277124,171.927157 C5.30482713,174.753666 7.18553419,177.329563 9.44179122,179.554725 C11.6773722,181.808616 14.2605152,183.689008 17.0925646,185.124083 C19.9212118,186.561931 22.9499589,187.566661 26.0773371,188.104613 C29.2092981,188.618951 32.3753816,188.898191 35.549048,188.939993 C37.0100047,188.972123 38.4455321,188.99055 39.8925924,188.99055 C41.6212186,189 43.3338216,189 45.0669854,189 L520.567242,189 C522.265995,189 523.992164,189 525.690918,188.99055 C527.131124,188.99055 528.608199,188.972123 530.048406,188.939993 C533.216072,188.900414 536.376195,188.621156 539.501683,188.104613 C542.63915,187.562874 545.678755,186.55841 548.521054,185.124083 C551.350549,183.688177 553.931308,181.807837 556.164974,179.554725 C558.41541,177.320848 560.300132,174.746836 561.74997,171.927158 C563.177221,169.094004 564.163981,166.059863 564.676232,162.92934 C565.203322,159.802513 565.496556,156.640763 565.553496,153.470363 C565.57193,152.002778 565.57193,150.581498 565.57193,149.114385 C565.608798,147.397793 565.608798,145.69065 565.608798,143.94618 L565.608798,45.0582143 C565.608798,43.327872 565.608798,41.611374 565.57193,39.8995065 C565.57193,38.4506325 565.57193,36.997128 565.553496,35.548254 C565.496567,32.3776961 565.203334,29.2157885 564.676232,26.088804 C564.162553,22.9601055 563.17585,19.927703 561.74997,17.095617 C558.832331,11.4118015 554.205798,6.78522 548.521054,3.866562 C545.678747,2.43605587 542.638816,1.43753594 539.501683,0.903987 C536.376736,0.38321065 533.216283,0.103986689 530.048406,0.068796 C528.608199,0.045738 527.131124,0.0180495 525.690918,0.00883575 C523.992164,-0.00061425 522.265995,-0.00061425 520.567242,-0.00061425 L520.567242,-0.00061425 Z" fill="#A6A6A6"></path>
                    <path d="M39.9156584,184.865625 C38.4755462,184.865625 37.0702221,184.847197 35.6414065,184.815067 C32.6814993,184.776515 29.7285102,184.518928 26.8066575,184.04442 C24.0821772,183.575361 21.4428882,182.702825 18.9758464,181.455592 C16.5314261,180.218695 14.3019183,178.596839 12.3727325,176.652157 C10.4156221,174.730383 8.7862383,172.501453 7.54915064,170.053695 C6.29843134,167.590029 5.43285915,164.949275 4.98258595,162.223425 C4.49632998,159.294468 4.23324536,156.33283 4.19560064,153.36405 C4.16563376,152.367547 4.12640266,149.049652 4.12640266,149.049652 L4.12640266,39.8995065 C4.12640266,39.8995065 4.16818614,36.6325942 4.19583698,35.672805 C4.2318815,32.7087277 4.49343629,29.7516859 4.97823744,26.8272742 C5.42934179,24.0939566 6.29558407,21.4455884 7.54697639,18.9738517 C8.77951744,16.5277847 10.3998552,14.2971899 12.3451762,12.368538 C14.2883106,10.4215612 16.5249502,8.79135446 18.9735304,7.53736725 C21.4349022,6.29414227 24.0692033,5.42776128 26.7881763,4.96725075 C29.7196249,4.48797575 32.6828656,4.2288565 35.653034,4.19206725 L39.9179745,4.134375 L525.667757,4.134375 L529.983651,4.1943825 C532.926802,4.22934371 535.863125,4.48615128 538.767636,4.96262025 C541.514134,5.4289072 544.175889,6.3013334 546.665376,7.5512115 C551.570769,10.0783591 555.562193,14.0765449 558.080208,18.9853808 C559.311626,21.440054 560.164507,24.0668194 560.609905,26.7765278 C561.100479,29.7249343 561.375039,32.7052136 561.431395,35.693595 C561.445102,37.031715 561.445102,38.46906 561.445102,39.8995065 C561.482442,41.6713815 561.482442,43.3578758 561.482442,45.0582143 L561.482442,143.94618 C561.482442,145.662772 561.482442,147.337785 561.445102,149.0265 C561.445102,150.56307 561.445102,151.970647 561.426668,153.419332 C561.371532,156.354388 561.10155,159.281471 560.618885,162.17712 C560.177842,164.922634 559.316982,167.584 558.066501,170.06787 C556.820668,172.48906 555.200641,174.698683 553.266127,176.615302 C551.335205,178.570435 549.101763,180.201779 546.651669,181.446615 C544.169078,182.703435 541.511241,183.579198 538.767636,184.04442 C535.846004,184.521461 532.892731,184.779064 529.932603,184.815067 C528.548171,184.847197 527.098511,184.865625 525.690918,184.865625 L520.567242,184.875075 L39.9156584,184.865625 Z" fill="#000000"></path>
                </g>
                <g id="_Group_" transform="translate(47.134927, 41.197724)" fill="#FFFFFF">
                    <g id="_Group_3">
                        <path d="M69.9386144,54.7229888 C70.0419245,46.7071639 74.2457302,39.3029802 81.0772215,35.1045053 C76.7479639,28.9236986 69.7566957,25.145426 62.2124511,24.9094673 C54.2752907,24.0766388 46.5805596,29.657289 42.5359278,29.657289 C38.4130228,29.657289 32.1856766,24.9921548 25.4798528,25.1300775 C16.6567373,25.4150348 8.63060223,30.3081837 4.33797705,38.0192633 C-4.80334176,53.8405478 2.01525964,77.092509 10.7718773,89.8812413 C15.1529986,96.14352 20.2732715,103.138646 26.9730452,102.890584 C33.5291764,102.618755 35.9777642,98.7114158 43.891575,98.7114158 C51.7319338,98.7114158 54.0292219,102.890584 60.8649337,102.732863 C67.8999679,102.618707 72.3323731,96.4427543 76.5597841,90.1211768 C79.7076124,85.6590744 82.1298613,80.7274796 83.7368065,75.509067 C75.3813224,71.9763323 69.9483666,63.791938 69.9386144,54.7229888 L69.9386144,54.7229888 Z" id="_Path_"></path>
                        <path d="M57.0271869,16.498731 C60.8629797,11.8955978 62.7527293,5.97904988 62.29512,0.00555153777 C56.4348815,0.620843341 51.0216628,3.4206855 47.134049,7.84720879 C43.295209,12.2145689 41.3504615,17.9282452 41.7281453,23.7297765 C47.6669625,23.7909028 53.3057441,21.1257497 57.0271869,16.498731 L57.0271869,16.498731 Z" id="_Path_2"></path>
                    </g>
                    <g id="Group" transform="translate(114.767399, 42.715883)">
                        <path d="M38.0452115,44.3212387 L15.6721409,44.3212387 L10.2992764,60.1804649 L0.822933486,60.1804649 L22.0143444,1.50541491 L31.8599324,1.50541491 L53.0513433,60.1804649 L43.4133966,60.1804649 L38.0452115,44.3212387 Z M17.9892809,37.0030169 L35.7236285,37.0030169 L26.9811907,11.2646662 L26.7365399,11.2646662 L17.9892809,37.0030169 Z" id="Shape"></path>
                        <path d="M98.8175876,38.7933667 C98.8175876,52.0870597 91.6999318,60.6280169 80.9588349,60.6280169 C75.4068557,60.9183427 70.1771948,58.0113624 67.4943907,53.1436169 L67.2911453,53.1436169 L67.2911453,74.3323124 L58.5071603,74.3323124 L58.5071603,17.4016379 L67.0097212,17.4016379 L67.0097212,24.5168264 L67.1712777,24.5168264 C69.9732683,19.6795978 75.2085685,16.7738689 80.7972784,16.9540387 C91.6581956,16.9540859 98.8175876,25.5365759 98.8175876,38.7933667 Z M89.7889518,38.7933667 C89.7889518,30.1324417 85.311549,24.4383914 78.4800912,24.4383914 C71.7686426,24.4383914 67.2543248,30.2523622 67.2543248,38.7933667 C67.2543248,47.4128062 71.7686426,53.1852442 78.4800912,53.1852442 C85.3115963,53.1852442 89.7889518,47.5327739 89.7889518,38.7933667 Z" id="Shape"></path>
                        <path d="M145.917784,38.7933667 C145.917784,52.0870597 138.800128,60.6280169 128.059031,60.6280169 C122.507052,60.9183427 117.277391,58.0113624 114.594587,53.1436169 L114.391341,53.1436169 L114.391341,74.3323124 L105.607357,74.3323124 L105.607357,17.4016379 L114.109728,17.4016379 L114.109728,24.5168264 L114.271285,24.5168264 C117.073296,19.6796007 122.308616,16.7738889 127.897333,16.9540859 C138.758581,16.9540859 145.917784,25.5365759 145.917784,38.7933667 Z M136.889195,38.7933667 C136.889195,30.1324417 132.411745,24.4383914 125.580287,24.4383914 C118.868839,24.4383914 114.354521,30.2523622 114.354521,38.7933667 C114.354521,47.4128062 118.868839,53.1852442 125.580287,53.1852442 C132.411792,53.1852442 136.889195,47.5327739 136.889195,38.7933667 L136.889195,38.7933667 Z" id="Shape"></path>
                        <path d="M177.047141,43.8321067 C177.697999,49.6507079 183.352477,53.4711067 191.079349,53.4711067 C198.483203,53.4711067 203.809888,49.6505189 203.809888,44.4040679 C203.809888,39.8497822 200.597239,37.1228429 192.990329,35.2540109 L185.383419,33.4221284 C174.605407,30.8196929 169.601788,25.7809057 169.601788,17.6044349 C169.601788,7.48074441 178.42732,0.527056405 190.95934,0.527056405 C203.362039,0.527056405 211.864553,7.48074441 212.150751,17.6044349 L203.283577,17.6044349 C202.752775,11.7489314 197.910712,8.21444241 190.834604,8.21444241 C183.758495,8.21444241 178.916479,11.7905114 178.916479,16.9953824 C178.916479,21.1436017 182.009119,23.5845367 189.574482,25.4531324 L196.04128,27.0404489 C208.084046,29.8874504 213.087665,34.7232989 213.087665,43.3056944 C213.087665,54.2830034 204.340595,61.1582564 190.428397,61.1582564 C177.41166,61.1582564 168.62309,54.4445039 168.055326,43.8316814 L177.047141,43.8321067 Z" id="Path"></path>
                        <path d="M232.045078,7.27794741 L232.045078,17.4016379 L240.182837,17.4016379 L240.182837,24.3553259 L232.045078,24.3553259 L232.045078,47.9387932 C232.045078,51.6025109 233.674492,53.3097952 237.251753,53.3097952 C238.217838,53.292955 239.182359,53.2251356 240.141289,53.1066202 L240.141289,60.0187754 C238.532948,60.3191888 236.898205,60.4552449 235.262311,60.4248419 C226.598383,60.4248419 223.219545,57.1717739 223.219545,48.8753354 L223.219545,24.3553259 L216.997399,24.3553259 L216.997399,17.4016379 L223.219451,17.4016379 L223.219451,7.27794741 L232.045078,7.27794741 Z" id="Path"></path>
                        <path d="M244.895815,38.7933667 C244.895815,25.3335899 252.825838,16.8756509 265.191764,16.8756509 C277.59919,16.8756509 285.492298,25.3334009 285.492298,38.7933667 C285.492298,52.2900929 277.640737,60.7110824 265.191764,60.7110824 C252.747187,60.7110824 244.895815,52.2900457 244.895815,38.7933667 Z M276.542125,38.7933667 C276.542125,29.5602442 272.309373,24.1108072 265.191717,24.1108072 C258.074061,24.1108072 253.845941,29.6017769 253.845941,38.7933667 C253.845941,48.0633914 258.074061,53.4713429 265.191717,53.4713429 C272.309373,53.4713429 276.542125,48.0633914 276.542125,38.7933667 L276.542125,38.7933667 Z" id="Shape"></path>
                        <path d="M292.734359,17.4016379 L301.112184,17.4016379 L301.112184,24.6828629 L301.31543,24.6828629 C302.483742,19.9956081 306.78005,16.7696765 311.608772,16.9539914 C312.621048,16.9504582 313.630531,17.0603547 314.618317,17.2816229 L314.618317,25.4949959 C313.340381,25.1046321 312.007273,24.9254033 310.671574,24.9643784 C308.089167,24.8596509 305.58997,25.888469 303.830197,27.7806956 C302.070425,29.6729223 301.225891,32.2395117 301.518344,34.8065534 L301.518344,60.1803704 L292.734359,60.1803704 L292.734359,17.4016379 Z" id="Path"></path>
                        <path d="M355.117716,47.6157922 C353.936056,55.3815659 346.370646,60.7110352 336.691199,60.7110352 C324.242226,60.7110352 316.515306,52.3730639 316.515306,38.9963527 C316.515306,25.5781087 324.283773,16.8756037 336.321954,16.8756037 C348.161616,16.8756037 355.607017,25.0059112 355.607017,37.9766032 L355.607017,40.9851052 L325.382386,40.9851052 L325.382386,41.5157227 C325.100193,44.7005221 326.200291,47.8530318 328.402849,50.1713553 C330.605408,52.4896789 333.698138,53.7503697 336.89435,53.6327489 C341.157032,54.0320096 345.175908,51.5851119 346.7769,47.6157449 L355.117716,47.6157922 Z M325.42385,34.8481807 L346.8184,34.8481807 C346.977808,31.9863781 345.935731,29.1878815 343.943234,27.1268765 C341.950736,25.0658715 339.188475,23.9292273 336.321954,23.9907922 C333.432758,23.9735564 330.656372,25.1107335 328.609902,27.1495645 C326.563432,29.1883955 325.416447,31.9599437 325.42385,34.8481807 L325.42385,34.8481807 Z" id="Shape"></path>
                    </g>
                </g>
            </g>
            <g id="Group" transform="translate(168.000000, 38.000000)" fill="#FFFFFF">
                <path d="M10.98697,2.2802963 C14.7219865,2.01189538 18.3803525,3.43489151 20.9551274,6.15761454 C23.5299022,8.88033757 24.7496905,12.6157975 24.2787536,16.3358341 C24.2787536,25.3728711 19.4012681,30.5675378 10.98697,30.5675378 L0.783529993,30.5675378 L0.783529993,2.2802963 L10.98697,2.2802963 Z M5.17093299,26.5671111 L10.4968875,26.5671111 C13.1661231,26.7268836 15.7651633,25.6737612 17.5723519,23.7001566 C19.3795406,21.7265521 20.2024792,19.0425809 19.8126685,16.3934815 C20.1741186,13.7553756 19.3393288,11.0935524 17.536621,9.13604258 C15.7339132,7.17853273 13.1519382,6.1301869 10.4968875,6.2777363 L5.17093299,6.2777363 L5.17093299,26.5671111 Z" id="Shape"></path>
                <path d="M29.2348265,19.8842785 C28.8692867,16.0579558 30.7014934,12.354901 33.963024,10.3281653 C37.2245546,8.30142957 41.3515,8.30142957 44.6130306,10.3281653 C47.8745612,12.354901 49.7067679,16.0579558 49.3412281,19.8842785 C49.7137227,23.7147129 47.8831884,27.42495 44.6187659,29.4560488 C41.3543435,31.4871477 37.2217111,31.4871477 33.9572887,29.4560488 C30.6928662,27.42495 28.8623319,23.7147129 29.2348265,19.8842785 Z M45.0139019,19.8842785 C45.0139019,15.2569837 42.9380105,12.5509689 39.2949629,12.5509689 C35.6379968,12.5509689 33.5808054,15.2569837 33.5808054,19.8843259 C33.5808054,24.5486933 35.6381388,27.2338489 39.2949629,27.2338489 C42.9381052,27.2338489 45.0139019,24.5301096 45.0139019,19.8842785 L45.0139019,19.8842785 Z" id="Shape"></path>
                <polygon id="Path" points="76.0680989 30.5671111 71.7037987 30.5671111 67.297885 14.8448711 66.9650247 14.8448711 62.5775744 30.5671111 58.2548403 30.5671111 52.3787265 9.21988741 56.645976 9.21988741 60.4647564 25.5090726 60.7791534 25.5090726 65.1619642 9.21988741 69.1980436 9.21988741 73.5808544 25.5090726 73.9137148 25.5090726 77.7139845 9.21988741 81.9211099 9.21988741"></polygon>
                <path d="M86.8633117,9.21988741 L90.9132622,9.21988741 L90.9132622,12.6110815 L91.2276592,12.6110815 C92.3209468,10.1142658 94.8756439,8.58693913 97.589216,8.80782222 C99.6903254,8.6496321 101.749264,9.45678176 103.184691,11.0013728 C104.620118,12.5459638 105.276264,14.6603793 104.967864,16.7476148 L104.967864,30.5668741 L100.760739,30.5668741 L100.760739,17.8055585 C100.760739,14.3750163 99.2720756,12.6689659 96.1606293,12.6689659 C94.7354788,12.6024966 93.3524082,13.162584 92.3740158,14.2023907 C91.3956234,15.2421973 90.9194878,16.6580196 91.070437,18.0786726 L91.070437,30.5671111 L86.8633117,30.5671111 L86.8633117,9.21988741 Z" id="Path"></path>
                <polygon id="Path" points="111.671561 0.886518519 115.878686 0.886518519 115.878686 30.5670637 111.671561 30.5670637"></polygon>
                <path d="M121.727057,19.8842785 C121.361798,16.0577055 123.194294,12.354557 126.456067,10.32779 C129.717839,8.30102301 133.844997,8.30102301 137.10677,10.32779 C140.368542,12.354557 142.201038,16.0577055 141.835779,19.8842785 C142.2078,23.7148501 140.376931,27.4249822 137.112346,29.4559917 C133.847762,31.4870011 129.715075,31.4870011 126.45049,29.4559917 C123.185906,27.4249822 121.355036,23.7148501 121.727057,19.8842785 L121.727057,19.8842785 Z M137.506133,19.8842785 C137.506133,15.2569837 135.430241,12.5509689 131.787194,12.5509689 C128.130228,12.5509689 126.073036,15.2569837 126.073036,19.8843259 C126.073036,24.5486933 128.13037,27.2338489 131.787194,27.2338489 C135.430289,27.2338489 137.506133,24.5301096 137.506133,19.8842785 L137.506133,19.8842785 Z" id="Shape"></path>
                <path d="M146.264843,24.5301096 C146.264843,20.6875022 149.122016,18.4722489 154.19365,18.1574163 L159.968074,17.8240948 L159.968074,15.9815111 C159.968074,13.7268622 158.47941,12.4537363 155.603774,12.4537363 C153.255193,12.4537363 151.627818,13.3171674 151.160839,14.8264296 L147.087785,14.8264296 C147.517744,11.1597511 150.96205,8.80791704 155.797922,8.80791704 C161.142388,8.80791704 164.156736,11.4722133 164.156736,15.9815111 L164.156736,30.5671585 L160.106785,30.5671585 L160.106785,27.5671704 L159.773925,27.5671704 C158.398402,29.7579915 155.952274,31.0384035 153.370755,30.9188741 C151.561048,31.1073745 149.756165,30.5204654 148.402306,29.3032412 C147.048447,28.0860171 146.271973,26.3520868 146.264843,24.5301096 L146.264843,24.5301096 Z M159.968074,22.7060148 L159.968074,20.9213156 L154.76232,21.254637 C151.826559,21.4513778 150.495071,22.4513896 150.495071,24.3333215 C150.495071,26.2546015 152.15942,27.3726578 154.448113,27.3726578 C155.802969,27.5099964 157.155479,27.0908447 158.196024,26.2111554 C159.236569,25.3314661 159.876049,24.066565 159.968074,22.7060148 Z" id="Shape"></path>
                <path d="M169.686071,19.8842785 C169.686071,13.1389156 173.148888,8.86575407 178.53492,8.86575407 C181.254597,8.7402673 183.801827,10.1995751 185.072162,12.6109393 L185.386559,12.6109393 L185.386559,0.886518519 L189.593684,0.886518519 L189.593684,30.5670637 L185.562244,30.5670637 L185.562244,27.1943585 L185.229384,27.1943585 C183.863024,29.5857161 181.284412,31.0203566 178.534967,30.9188741 C173.111914,30.9191111 169.686071,26.6458548 169.686071,19.8842785 Z M174.03205,19.8842785 C174.03205,24.4120652 176.163378,27.1366163 179.727886,27.1366163 C183.273788,27.1366163 185.465288,24.3727644 185.465288,19.9028148 C185.465288,15.4537244 183.25078,12.650477 179.727886,12.650477 C176.186339,12.650477 174.031908,15.393517 174.031908,19.8842785 L174.03205,19.8842785 Z" id="Shape"></path>
                <path d="M207.000135,19.8842785 C206.634595,16.0579558 208.466801,12.354901 211.728332,10.3281653 C214.989863,8.30142957 219.116808,8.30142957 222.378339,10.3281653 C225.639869,12.354901 227.472076,16.0579558 227.106536,19.8842785 C227.479031,23.7147129 225.648496,27.42495 222.384074,29.4560488 C219.119652,31.4871477 214.987019,31.4871477 211.722597,29.4560488 C208.458174,27.42495 206.62764,23.7147129 207.000135,19.8842785 L207.000135,19.8842785 Z M222.779163,19.8842785 C222.779163,15.2569837 220.703319,12.5509689 217.060271,12.5509689 C213.403305,12.5509689 211.346113,15.2569837 211.346113,19.8843259 C211.346113,24.5486933 213.403447,27.2338489 217.060271,27.2338489 C220.703366,27.2338489 222.779163,24.5301096 222.779163,19.8842785 Z" id="Shape"></path>
                <path d="M232.75148,9.21988741 L236.80143,9.21988741 L236.80143,12.6110815 L237.115827,12.6110815 C238.209115,10.1142658 240.763812,8.58693913 243.477384,8.80782222 C245.578494,8.6496321 247.637432,9.45678176 249.072859,11.0013728 C250.508287,12.5459638 251.164432,14.6603793 250.856033,16.7476148 L250.856033,30.5668741 L246.648907,30.5668741 L246.648907,17.8055585 C246.648907,14.3750163 245.160244,12.6689659 242.048797,12.6689659 C240.623647,12.6024966 239.240576,13.162584 238.262184,14.2023907 C237.283792,15.2421973 236.807656,16.6580196 236.958605,18.0786726 L236.958605,30.5671111 L232.75148,30.5671111 L232.75148,9.21988741 Z" id="Path"></path>
                <path d="M274.628679,3.90509037 L274.628679,9.31712 L279.2473,9.31712 L279.2473,12.8657541 L274.628679,12.8657541 L274.628679,23.8426074 C274.628679,26.07872 275.54872,27.0578726 277.643028,27.0578726 C278.1792,27.0561543 278.714834,27.0236902 279.2473,26.96064 L279.2473,30.4698785 C278.491769,30.6052301 277.726281,30.6772387 276.958796,30.6851556 C272.280099,30.6851556 270.416914,29.0369896 270.416914,24.9212681 L270.416914,12.8655644 L267.032732,12.8655644 L267.032732,9.31693037 L270.416914,9.31693037 L270.416914,3.90509037 L274.628679,3.90509037 Z" id="Path"></path>
                <path d="M284.993934,0.886518519 L289.164085,0.886518519 L289.164085,12.6504296 L289.496945,12.6504296 C290.642749,10.1317621 293.242157,8.60248909 295.996977,8.82635852 C298.086155,8.71252045 300.117222,9.53743983 301.53696,11.0764272 C302.956699,12.6154145 303.617234,14.7081749 303.338652,16.7846874 L303.338652,30.5671111 L299.127313,30.5671111 L299.127313,17.824 C299.127313,14.4142696 297.541362,12.6874074 294.568816,12.6874074 C293.105144,12.5671996 291.663113,13.100046 290.628237,14.1434951 C289.59336,15.1869442 289.071162,16.634597 289.201248,18.099437 L289.201248,30.5671111 L284.994123,30.5671111 L284.993934,0.886518519 Z" id="Path"></path>
                <path d="M327.869714,24.8032237 C326.689989,28.8299116 322.79869,31.4315996 318.632521,30.9791289 C315.789947,31.0542706 313.058075,29.8743974 311.161737,27.7525578 C309.265398,25.6307182 308.396303,22.7814207 308.785044,19.9606519 C308.406628,17.1320437 309.272467,14.2781807 311.158246,12.1384152 C313.044025,9.99864973 315.764184,8.78353423 318.61401,8.80786963 C324.545608,8.80786963 328.123987,12.8659437 328.123987,19.5693511 L328.123987,21.0394074 L313.070756,21.0394074 L313.070756,21.2754963 C312.937546,22.8595681 313.477805,24.426419 314.558666,25.5907115 C315.639527,26.755004 317.160701,27.408706 318.748082,27.3910519 C320.806371,27.6384933 322.809974,26.6160974 323.819764,24.8030815 L327.869714,24.8032237 Z M313.070662,17.923603 L323.838132,17.923603 C323.945375,16.4748347 323.436666,15.0480833 322.437368,13.9949468 C321.43807,12.9418103 320.041117,12.360231 318.590765,12.3935289 C317.120764,12.3750348 315.705603,12.9518044 314.6663,13.9930021 C313.626998,15.0341998 313.051645,16.4515733 313.070756,17.923603 L313.070662,17.923603 Z" id="Shape"></path>
            </g>
        </g>
    </g>
</svg>